<svg width="136" height="65" viewBox="0 0 136 65" fill="none" xmlns="http://www.w3.org/2000/svg">
<path fill-rule="evenodd" clip-rule="evenodd" d="M60.7202 50.3245C59.3589 52.0643 57.4373 53.4123 54.9083 53.4123C51.0296 53.4123 48.6967 50.692 47.2839 47.9745C45.8737 45.262 44.9437 41.7575 44.1274 38.637C44.1009 38.5355 44.0745 38.4344 44.0481 38.3337C43.2194 35.1639 42.4913 32.379 41.5182 30.3335C40.4813 28.154 39.688 27.8765 39.1809 27.8765C38.9348 27.8765 38.2943 28.0284 37.1557 29.7252C36.3007 30.9995 35.5161 32.5977 34.5992 34.4655C34.3398 34.9941 34.0697 35.5442 33.7844 36.1148C32.5676 38.5485 31.0997 41.2848 29.1546 43.4117C27.1488 45.6051 24.4706 47.3243 20.9169 47.3243C17.0446 47.3243 14.6563 46.0996 12.5828 45.0364C12.3625 44.9234 12.1457 44.8122 11.9311 44.7045C9.87427 43.6727 7.54251 42.6555 2.83988 42.6555H0.152344V37.2804H2.83988C8.58506 37.2804 11.745 38.5976 14.3414 39.9002C14.5726 40.0162 14.794 40.1287 15.0079 40.2374C17.0311 41.2658 18.3757 41.9492 20.9169 41.9492C22.521 41.9492 23.8592 41.2374 25.1881 39.7844C26.5777 38.2648 27.7627 36.1392 28.9768 33.711C29.2054 33.2539 29.4375 32.7799 29.6736 32.298C30.6128 30.3808 31.6137 28.3376 32.6924 26.7302C34.0006 24.7805 36.0448 22.5014 39.1809 22.5014C42.9861 22.5014 45.1311 25.4159 46.372 28.0244C47.5715 30.5458 48.4164 33.7846 49.1856 36.733C49.2332 36.9154 49.2805 37.0967 49.3275 37.2767C50.1812 40.5402 50.974 43.4197 52.053 45.4952C53.1294 47.5656 54.0518 48.0372 54.9083 48.0372C55.2964 48.0372 55.8005 47.8897 56.487 47.0122C57.2183 46.0776 57.9358 44.5657 58.6008 42.4434C59.926 38.2136 60.7788 32.4645 61.588 26.4379C61.6785 25.7639 61.7685 25.0861 61.8586 24.4073C62.5563 19.1521 63.2624 13.8334 64.2851 9.69883C64.8595 7.37671 65.5882 5.18476 66.6094 3.5184C67.6252 1.86089 69.2948 0.178711 71.8194 0.178711C74.9916 0.178711 76.4932 2.88728 77.1733 4.84658C77.9212 7.00106 78.2821 9.82479 78.4694 12.7795C78.7359 16.9826 78.6726 22.0207 78.6134 26.7384C78.5892 28.6696 78.5656 30.5471 78.5656 32.2916C78.5656 38.3518 79.0715 45.528 80.1525 51.124C80.6977 53.9462 81.3578 56.1951 82.0818 57.673C82.4049 58.3326 82.6856 58.7227 82.8825 58.9309C82.9799 58.834 83.1182 58.6643 83.2941 58.3731C83.8198 57.5025 84.3344 56.0621 84.7923 54.0209C85.6994 49.9762 86.1963 44.4852 86.6431 38.7624C86.6993 38.0414 86.7548 37.3166 86.8103 36.5915C87.1868 31.6743 87.5645 26.7407 88.198 22.897C88.5583 20.7106 89.0343 18.6502 89.744 17.0761C90.3682 15.6916 91.7127 13.5385 94.3112 13.5385C96.7094 13.5385 98.1996 15.148 99.0191 16.6816C99.8194 18.1794 100.288 20.1023 100.603 22.0612C101.172 25.591 101.366 30.1283 101.557 34.5601C101.58 35.0911 101.602 35.6207 101.626 36.1468C101.85 41.2074 102.126 45.9728 102.903 49.4583C103.295 51.2132 103.76 52.3797 104.226 53.0518C104.619 53.6185 104.836 53.6181 104.958 53.6179L104.965 53.6179C104.966 53.6179 104.959 53.621 104.971 53.6151C104.995 53.6044 105.078 53.5605 105.215 53.4268C105.516 53.1343 105.902 52.586 106.348 51.6692C107.11 50.1013 107.768 48.0739 108.524 45.744C108.667 45.3033 108.813 44.8518 108.965 44.3905C109.864 41.6514 110.935 38.5781 112.44 36.1832C113.956 33.7721 116.297 31.4643 119.847 31.4643C123.627 31.4643 126.106 33.5079 127.845 34.9418C127.884 34.9738 127.923 35.0054 127.961 35.0367C129.846 36.5894 130.917 37.3832 132.53 37.3832H135.218V42.7583H132.53C128.868 42.7583 126.432 40.7456 124.731 39.3404C124.667 39.288 124.605 39.2365 124.544 39.1859C122.695 37.6632 121.563 36.8394 119.847 36.8394C119.001 36.8394 118.086 37.3008 116.991 39.0435C115.886 40.8024 114.991 43.2675 114.072 46.0668C113.939 46.4727 113.804 46.8877 113.668 47.3077C112.921 49.6183 112.124 52.0815 111.182 54.0187C110.618 55.1788 109.908 56.3613 108.963 57.2803C107.971 58.2444 106.634 58.993 104.965 58.993C102.634 58.993 100.928 57.729 99.8089 56.1148C98.755 54.5951 98.1036 52.6304 97.6572 50.6278C96.7589 46.5984 96.4755 41.3439 96.2557 36.3847C96.2325 35.8606 96.21 35.3396 96.1877 34.8229C95.9925 30.3079 95.8111 26.112 95.2964 22.9158C95.0616 21.4575 94.7821 20.3874 94.4871 19.6646C94.1335 20.5909 93.8002 21.9586 93.5015 23.771C92.9094 27.3639 92.5515 32.0282 92.1712 36.9861C92.1155 37.7122 92.0593 38.4445 92.0018 39.1807C91.5608 44.8306 91.0429 50.7124 90.037 55.1972C89.5383 57.4208 88.8719 59.5343 87.8954 61.1515C86.917 62.7719 85.2849 64.4046 82.8116 64.4046C81.3445 64.4046 80.1515 63.7434 79.2727 62.9188C78.4232 62.1216 77.7711 61.0916 77.2548 60.0376C76.221 57.9273 75.4529 55.1345 74.875 52.1435C73.71 46.1131 73.1905 38.5765 73.1905 32.2916C73.1905 30.3871 73.2155 28.4111 73.2405 26.4239C73.2989 21.7969 73.358 17.1089 73.1051 13.1195C72.9239 10.261 72.5933 8.04314 72.0955 6.60928C71.9312 6.13603 71.7895 5.84867 71.6855 5.67913C71.566 5.79433 71.3963 5.99425 71.1924 6.32694C70.6097 7.27784 70.0384 8.82484 69.503 10.9895C68.5574 14.8124 67.8936 19.8036 67.1857 25.1262C67.0965 25.7971 67.0066 26.4734 66.9153 27.1532C66.118 33.0912 65.2163 39.3067 63.73 44.0504C62.9892 46.4148 62.0368 48.6419 60.7202 50.3245ZM71.4994 5.45695C71.5005 5.45219 71.5208 5.4624 71.5571 5.50183C71.5165 5.48142 71.4984 5.4617 71.4994 5.45695ZM94.9948 18.6762C94.9952 18.6787 94.9823 18.6954 94.9548 18.7189C94.9806 18.6855 94.9944 18.6737 94.9948 18.6762ZM94.0381 18.8429C94.0182 18.8296 94.0086 18.8191 94.0087 18.8172C94.0089 18.8153 94.0188 18.822 94.0381 18.8429ZM82.714 59.051C82.7137 59.048 82.7281 59.0393 82.7577 59.0339C82.729 59.0513 82.7142 59.054 82.714 59.051Z" fill="url(#paint0_linear_6597_5246)"/>
<defs>
<linearGradient id="paint0_linear_6597_5246" x1="0.152342" y1="64.4045" x2="136.641" y2="61.2217" gradientUnits="userSpaceOnUse">
<stop stop-color="#FFD233"/>
<stop offset="0.458521" stop-color="#FF7333"/>
<stop offset="0.633213" stop-color="#334AFF"/>
<stop offset="1" stop-color="#33FFC2"/>
</linearGradient>
</defs>
</svg>
