<?xml version="1.0" encoding="utf-8"?>
<!-- Generator: Adobe Illustrator 24.0.3, SVG Export Plug-In . SVG Version: 6.00 Build 0)  -->
<svg version="1.1" id="Layer_1" xmlns="http://www.w3.org/2000/svg" xmlns:xlink="http://www.w3.org/1999/xlink" x="0px" y="0px"
	 viewBox="0 0 300 300" style="enable-background:new 0 0 300 300;" xml:space="preserve">
<style type="text/css">
	.st0{fill:#A91E2D;}
	.st1{fill:#ED3823;}
	.st2{fill:#680E1C;}
</style>
<g>
	<path class="st0" d="M154.6,200.4c-0.2,0-0.4,0.1-0.6,0.1c-2.7-2.2-5.6-4.1-8.4-6.1c-10.6-7.5-21.3-15-31.9-22.4
		c-0.9-0.6-1.7-1.5-2.9-1.5c-0.2-0.9-1.1-1.1-1.7-1.5c-28.9-20.4-57.9-40.8-86.8-61.2c-6.6-4.6-12.8-9.7-17.8-16.1
		c-1.5-1.9-2.7-3.9-3.5-6.2c-0.2-0.7-0.4-1.4-0.4-2.3c6.2,4.3,13.2,5.8,20.1,7.5c33.3,8.2,66.7,16.4,100,24.6
		c39.4,9.6,78.7,19.3,118.1,28.9c1.8,0.4,3.6,0.9,5.4,1.4c-0.2,0.2-0.3,0.5-0.6,0.6c-4.1,2.5-8.2,5-12.3,7.5
		c-9.1,5.5-18.1,11-27.2,16.5c-10.9,6.6-21.8,13.3-32.6,19.9C165.8,193.5,160.2,197,154.6,200.4z"/>
	<path class="st1" d="M154.6,200.4c5.6-3.4,11.2-6.9,16.8-10.3c10.9-6.7,21.8-13.3,32.6-19.9c9.1-5.5,18.1-11,27.2-16.5
		c4.1-2.5,8.2-5,12.3-7.5c0.2-0.1,0.4-0.4,0.6-0.6c5.6,1.3,11.3,2.6,16.9,4c6.1,1.5,12.2,2.7,18.1,4.7c9.7,3.4,16.2,10.2,20.1,19.6
		c0.5,1.2,0.4,1.6-1,1.6c-6-0.1-11.8,1.5-17.7,2.5c-17.7,3.1-35.4,6.3-53.1,9.4c-17.7,3.2-35.4,6.3-53.1,9.5
		C167.8,198.1,161.2,199.3,154.6,200.4z"/>
	<path class="st2" d="M110.7,170.5c1.2,0,2,0.9,2.9,1.5c10.7,7.4,21.3,14.9,31.9,22.4c2.8,2,5.8,3.8,8.4,6.1c-5.3,1-10.6,2-16,2.9
		c-17.1,3.1-34.3,6.1-51.4,9.1c-7.8,1.4-15.6,2.8-23.4,4c-4.3,0.7-8.6,0.3-12.7-1.5c-2.9-1.3-5.1-3.2-6.6-6.1
		c5.6,1.9,10.3-0.4,14.9-2.7c7.1-3.5,13.1-8.6,19.6-13.1C89.1,185.6,99.9,178,110.7,170.5z"/>
</g>
</svg>
